<?xml version="1.0" encoding="UTF-8" standalone="no"?><svg xmlns="http://www.w3.org/2000/svg" xmlns:xlink="http://www.w3.org/1999/xlink" contentStyleType="text/css" height="170px" preserveAspectRatio="none" style="width:1702px;height:170px;background:#FFFFFF;" version="1.1" viewBox="0 0 1702 170" width="1702px" zoomAndPan="magnify"><defs/><g><!--MD5=[901ec4fd8ca7047e66a247d0d4c063c1]
class IBarsService--><g id="elem_IBarsService"><rect codeLine="1" fill="#F1F1F1" height="48" id="IBarsService" rx="2.5" ry="2.5" style="stroke:#181818;stroke-width:0.5;" width="111" x="7" y="7"/><ellipse cx="22" cy="23" fill="#B4A7E5" rx="11" ry="11" style="stroke:#181818;stroke-width:1.0;"/><path d="M23,20 L23,26 L25,26 L25.4844,26 L26,26.625 L26,27 L26,27.375 L25.4844,28 L25,28 L19,28 L18.5156,28 L18,27.375 L18,27 L18,26.625 L18.5156,26 L19,26 L21,26 L21,20 L19,20 L18.5156,20 L18,19.375 L18,19 L18,18.625 L18.5156,18 L19,18 L25,18 L25.4844,18 L26,18.625 L26,19 L26,19.375 L25.4844,20 L25,20 L23,20 Z " fill="#000000"/><text fill="#000000" font-family="sans-serif" font-size="14" font-style="italic" lengthAdjust="spacing" textLength="79" x="36" y="28.7285">IBarsService</text><line style="stroke:#181818;stroke-width:0.5;" x1="8" x2="117" y1="39" y2="39"/><line style="stroke:#181818;stroke-width:0.5;" x1="8" x2="117" y1="47" y2="47"/></g><!--MD5=[57187c83f078c2adf7a85fc74c14ba28]
class BarsController--><g id="elem_BarsController"><rect codeLine="3" fill="#F1F1F1" height="48" id="BarsController" rx="2.5" ry="2.5" style="stroke:#181818;stroke-width:0.5;" width="123" x="155" y="115"/><ellipse cx="170" cy="131" fill="#ADD1B2" rx="11" ry="11" style="stroke:#181818;stroke-width:1.0;"/><path d="M172,127.5 Q172.2031,127 172.4375,126.75 Q172.6719,126.5 172.9375,126.5 Q173.4063,126.5 173.7031,126.7813 Q174,127.0625 174,127.7188 L174,129.2813 Q174,129.9375 173.7188,130.2188 Q173.4375,130.5 173,130.5 Q172.6094,130.5 172.3594,130.3281 Q172.1094,130.1563 172,129.7031 Q171.9531,129.3906 171.7813,129.2188 Q171.4688,128.8906 170.9063,128.7031 Q170.3438,128.5 169.7813,128.5 Q169.0781,128.5 168.4844,128.7813 Q167.9063,129.0625 167.4531,129.6875 Q167,130.3125 167,131.1719 L167,132.0938 Q167,133.125 167.8438,133.8125 Q168.6875,134.5 170.1875,134.5 Q171.0781,134.5 171.7031,134.2969 Q172.0625,134.1875 172.4688,133.8281 Q172.7344,133.625 172.875,133.5625 Q173.0156,133.5 173.1875,133.5 Q173.5156,133.5 173.75,133.7656 Q174,134.0156 174,134.375 Q174,134.7188 173.6563,135.125 Q173.1563,135.7188 172.3594,136.0469 Q171.3125,136.5 170.0313,136.5 Q168.5313,136.5 167.3281,135.9063 Q166.3594,135.4375 165.6719,134.4219 Q165,133.4063 165,132.2031 L165,131.1094 Q165,129.8594 165.5938,128.7656 Q166.2031,127.6719 167.25,127.0938 Q168.3125,126.5 169.5,126.5 Q170.2188,126.5 170.8438,126.75 Q171.4688,127 172,127.5 Z " fill="#000000"/><text fill="#000000" font-family="sans-serif" font-size="14" lengthAdjust="spacing" textLength="91" x="184" y="136.7285">BarsController</text><line style="stroke:#181818;stroke-width:0.5;" x1="156" x2="277" y1="147" y2="147"/><line style="stroke:#181818;stroke-width:0.5;" x1="156" x2="277" y1="155" y2="155"/></g><!--MD5=[ac70aea3b5be8e451b7b0a97e6abcf65]
class IGamesTypesRepository--><g id="elem_IGamesTypesRepository"><rect codeLine="5" fill="#F1F1F1" height="48" id="IGamesTypesRepository" rx="2.5" ry="2.5" style="stroke:#181818;stroke-width:0.5;" width="188" x="313.5" y="115"/><ellipse cx="328.5" cy="131" fill="#B4A7E5" rx="11" ry="11" style="stroke:#181818;stroke-width:1.0;"/><path d="M329.5,128 L329.5,134 L331.5,134 L331.9844,134 L332.5,134.625 L332.5,135 L332.5,135.375 L331.9844,136 L331.5,136 L325.5,136 L325.0156,136 L324.5,135.375 L324.5,135 L324.5,134.625 L325.0156,134 L325.5,134 L327.5,134 L327.5,128 L325.5,128 L325.0156,128 L324.5,127.375 L324.5,127 L324.5,126.625 L325.0156,126 L325.5,126 L331.5,126 L331.9844,126 L332.5,126.625 L332.5,127 L332.5,127.375 L331.9844,128 L331.5,128 L329.5,128 Z " fill="#000000"/><text fill="#000000" font-family="sans-serif" font-size="14" font-style="italic" lengthAdjust="spacing" textLength="156" x="342.5" y="136.7285">IGamesTypesRepository</text><line style="stroke:#181818;stroke-width:0.5;" x1="314.5" x2="500.5" y1="147" y2="147"/><line style="stroke:#181818;stroke-width:0.5;" x1="314.5" x2="500.5" y1="155" y2="155"/></g><!--MD5=[3773980f121b19bd75ac4706c02bbab6]
class ITableRepository--><g id="elem_ITableRepository"><rect codeLine="7" fill="#F1F1F1" height="48" id="ITableRepository" rx="2.5" ry="2.5" style="stroke:#181818;stroke-width:0.5;" width="140" x="536.5" y="115"/><ellipse cx="551.5" cy="131" fill="#B4A7E5" rx="11" ry="11" style="stroke:#181818;stroke-width:1.0;"/><path d="M552.5,128 L552.5,134 L554.5,134 L554.9844,134 L555.5,134.625 L555.5,135 L555.5,135.375 L554.9844,136 L554.5,136 L548.5,136 L548.0156,136 L547.5,135.375 L547.5,135 L547.5,134.625 L548.0156,134 L548.5,134 L550.5,134 L550.5,128 L548.5,128 L548.0156,128 L547.5,127.375 L547.5,127 L547.5,126.625 L548.0156,126 L548.5,126 L554.5,126 L554.9844,126 L555.5,126.625 L555.5,127 L555.5,127.375 L554.9844,128 L554.5,128 L552.5,128 Z " fill="#000000"/><text fill="#000000" font-family="sans-serif" font-size="14" font-style="italic" lengthAdjust="spacing" textLength="108" x="565.5" y="136.7285">ITableRepository</text><line style="stroke:#181818;stroke-width:0.5;" x1="537.5" x2="675.5" y1="147" y2="147"/><line style="stroke:#181818;stroke-width:0.5;" x1="537.5" x2="675.5" y1="155" y2="155"/></g><!--MD5=[bc9fad68f8bdf7a52f70a6770d38cdf4]
class GamesService--><g id="elem_GamesService"><rect codeLine="9" fill="#F1F1F1" height="48" id="GamesService" rx="2.5" ry="2.5" style="stroke:#181818;stroke-width:0.5;" width="124" x="1064.5" y="115"/><ellipse cx="1079.5" cy="131" fill="#ADD1B2" rx="11" ry="11" style="stroke:#181818;stroke-width:1.0;"/><path d="M1081.5,127.5 Q1081.7031,127 1081.9375,126.75 Q1082.1719,126.5 1082.4375,126.5 Q1082.9063,126.5 1083.2031,126.7813 Q1083.5,127.0625 1083.5,127.7188 L1083.5,129.2813 Q1083.5,129.9375 1083.2188,130.2188 Q1082.9375,130.5 1082.5,130.5 Q1082.1094,130.5 1081.8594,130.3281 Q1081.6094,130.1563 1081.5,129.7031 Q1081.4531,129.3906 1081.2813,129.2188 Q1080.9688,128.8906 1080.4063,128.7031 Q1079.8438,128.5 1079.2813,128.5 Q1078.5781,128.5 1077.9844,128.7813 Q1077.4063,129.0625 1076.9531,129.6875 Q1076.5,130.3125 1076.5,131.1719 L1076.5,132.0938 Q1076.5,133.125 1077.3438,133.8125 Q1078.1875,134.5 1079.6875,134.5 Q1080.5781,134.5 1081.2031,134.2969 Q1081.5625,134.1875 1081.9688,133.8281 Q1082.2344,133.625 1082.375,133.5625 Q1082.5156,133.5 1082.6875,133.5 Q1083.0156,133.5 1083.25,133.7656 Q1083.5,134.0156 1083.5,134.375 Q1083.5,134.7188 1083.1563,135.125 Q1082.6563,135.7188 1081.8594,136.0469 Q1080.8125,136.5 1079.5313,136.5 Q1078.0313,136.5 1076.8281,135.9063 Q1075.8594,135.4375 1075.1719,134.4219 Q1074.5,133.4063 1074.5,132.2031 L1074.5,131.1094 Q1074.5,129.8594 1075.0938,128.7656 Q1075.7031,127.6719 1076.75,127.0938 Q1077.8125,126.5 1079,126.5 Q1079.7188,126.5 1080.3438,126.75 Q1080.9688,127 1081.5,127.5 Z " fill="#000000"/><text fill="#000000" font-family="sans-serif" font-size="14" lengthAdjust="spacing" textLength="92" x="1093.5" y="136.7285">GamesService</text><line style="stroke:#181818;stroke-width:0.5;" x1="1065.5" x2="1187.5" y1="147" y2="147"/><line style="stroke:#181818;stroke-width:0.5;" x1="1065.5" x2="1187.5" y1="155" y2="155"/></g><!--MD5=[294177544d4485c88895c83fe6bc52ac]
class GamesController--><g id="elem_GamesController"><rect codeLine="11" fill="#F1F1F1" height="48" id="GamesController" rx="2.5" ry="2.5" style="stroke:#181818;stroke-width:0.5;" width="139" x="1227" y="115"/><ellipse cx="1242" cy="131" fill="#ADD1B2" rx="11" ry="11" style="stroke:#181818;stroke-width:1.0;"/><path d="M1244,127.5 Q1244.2031,127 1244.4375,126.75 Q1244.6719,126.5 1244.9375,126.5 Q1245.4063,126.5 1245.7031,126.7813 Q1246,127.0625 1246,127.7188 L1246,129.2813 Q1246,129.9375 1245.7188,130.2188 Q1245.4375,130.5 1245,130.5 Q1244.6094,130.5 1244.3594,130.3281 Q1244.1094,130.1563 1244,129.7031 Q1243.9531,129.3906 1243.7813,129.2188 Q1243.4688,128.8906 1242.9063,128.7031 Q1242.3438,128.5 1241.7813,128.5 Q1241.0781,128.5 1240.4844,128.7813 Q1239.9063,129.0625 1239.4531,129.6875 Q1239,130.3125 1239,131.1719 L1239,132.0938 Q1239,133.125 1239.8438,133.8125 Q1240.6875,134.5 1242.1875,134.5 Q1243.0781,134.5 1243.7031,134.2969 Q1244.0625,134.1875 1244.4688,133.8281 Q1244.7344,133.625 1244.875,133.5625 Q1245.0156,133.5 1245.1875,133.5 Q1245.5156,133.5 1245.75,133.7656 Q1246,134.0156 1246,134.375 Q1246,134.7188 1245.6563,135.125 Q1245.1563,135.7188 1244.3594,136.0469 Q1243.3125,136.5 1242.0313,136.5 Q1240.5313,136.5 1239.3281,135.9063 Q1238.3594,135.4375 1237.6719,134.4219 Q1237,133.4063 1237,132.2031 L1237,131.1094 Q1237,129.8594 1237.5938,128.7656 Q1238.2031,127.6719 1239.25,127.0938 Q1240.3125,126.5 1241.5,126.5 Q1242.2188,126.5 1242.8438,126.75 Q1243.4688,127 1244,127.5 Z " fill="#000000"/><text fill="#000000" font-family="sans-serif" font-size="14" lengthAdjust="spacing" textLength="107" x="1256" y="136.7285">GamesController</text><line style="stroke:#181818;stroke-width:0.5;" x1="1228" x2="1365" y1="147" y2="147"/><line style="stroke:#181818;stroke-width:0.5;" x1="1228" x2="1365" y1="155" y2="155"/></g><!--MD5=[1e75530e728bf585be6675717a02da1c]
class IGamesRepository--><g id="elem_IGamesRepository"><rect codeLine="13" fill="#F1F1F1" height="48" id="IGamesRepository" rx="2.5" ry="2.5" style="stroke:#181818;stroke-width:0.5;" width="149" x="712" y="115"/><ellipse cx="727" cy="131" fill="#B4A7E5" rx="11" ry="11" style="stroke:#181818;stroke-width:1.0;"/><path d="M728,128 L728,134 L730,134 L730.4844,134 L731,134.625 L731,135 L731,135.375 L730.4844,136 L730,136 L724,136 L723.5156,136 L723,135.375 L723,135 L723,134.625 L723.5156,134 L724,134 L726,134 L726,128 L724,128 L723.5156,128 L723,127.375 L723,127 L723,126.625 L723.5156,126 L724,126 L730,126 L730.4844,126 L731,126.625 L731,127 L731,127.375 L730.4844,128 L730,128 L728,128 Z " fill="#000000"/><text fill="#000000" font-family="sans-serif" font-size="14" font-style="italic" lengthAdjust="spacing" textLength="117" x="741" y="136.7285">IGamesRepository</text><line style="stroke:#181818;stroke-width:0.5;" x1="713" x2="860" y1="147" y2="147"/><line style="stroke:#181818;stroke-width:0.5;" x1="713" x2="860" y1="155" y2="155"/></g><!--MD5=[c2c8c7998af61f673afb10a373c4cc42]
class IBarsRepository--><g id="elem_IBarsRepository"><rect codeLine="15" fill="#F1F1F1" height="48" id="IBarsRepository" rx="2.5" ry="2.5" style="stroke:#181818;stroke-width:0.5;" width="133" x="896" y="115"/><ellipse cx="911" cy="131" fill="#B4A7E5" rx="11" ry="11" style="stroke:#181818;stroke-width:1.0;"/><path d="M912,128 L912,134 L914,134 L914.4844,134 L915,134.625 L915,135 L915,135.375 L914.4844,136 L914,136 L908,136 L907.5156,136 L907,135.375 L907,135 L907,134.625 L907.5156,134 L908,134 L910,134 L910,128 L908,128 L907.5156,128 L907,127.375 L907,127 L907,126.625 L907.5156,126 L908,126 L914,126 L914.4844,126 L915,126.625 L915,127 L915,127.375 L914.4844,128 L914,128 L912,128 Z " fill="#000000"/><text fill="#000000" font-family="sans-serif" font-size="14" font-style="italic" lengthAdjust="spacing" textLength="101" x="925" y="136.7285">IBarsRepository</text><line style="stroke:#181818;stroke-width:0.5;" x1="897" x2="1028" y1="147" y2="147"/><line style="stroke:#181818;stroke-width:0.5;" x1="897" x2="1028" y1="155" y2="155"/></g><!--MD5=[f62258f3eb53dc2ec030062682c4bf47]
class TableService--><g id="elem_TableService"><rect codeLine="17" fill="#F1F1F1" height="48" id="TableService" rx="2.5" ry="2.5" style="stroke:#181818;stroke-width:0.5;" width="115" x="1404" y="115"/><ellipse cx="1419" cy="131" fill="#ADD1B2" rx="11" ry="11" style="stroke:#181818;stroke-width:1.0;"/><path d="M1421,127.5 Q1421.2031,127 1421.4375,126.75 Q1421.6719,126.5 1421.9375,126.5 Q1422.4063,126.5 1422.7031,126.7813 Q1423,127.0625 1423,127.7188 L1423,129.2813 Q1423,129.9375 1422.7188,130.2188 Q1422.4375,130.5 1422,130.5 Q1421.6094,130.5 1421.3594,130.3281 Q1421.1094,130.1563 1421,129.7031 Q1420.9531,129.3906 1420.7813,129.2188 Q1420.4688,128.8906 1419.9063,128.7031 Q1419.3438,128.5 1418.7813,128.5 Q1418.0781,128.5 1417.4844,128.7813 Q1416.9063,129.0625 1416.4531,129.6875 Q1416,130.3125 1416,131.1719 L1416,132.0938 Q1416,133.125 1416.8438,133.8125 Q1417.6875,134.5 1419.1875,134.5 Q1420.0781,134.5 1420.7031,134.2969 Q1421.0625,134.1875 1421.4688,133.8281 Q1421.7344,133.625 1421.875,133.5625 Q1422.0156,133.5 1422.1875,133.5 Q1422.5156,133.5 1422.75,133.7656 Q1423,134.0156 1423,134.375 Q1423,134.7188 1422.6563,135.125 Q1422.1563,135.7188 1421.3594,136.0469 Q1420.3125,136.5 1419.0313,136.5 Q1417.5313,136.5 1416.3281,135.9063 Q1415.3594,135.4375 1414.6719,134.4219 Q1414,133.4063 1414,132.2031 L1414,131.1094 Q1414,129.8594 1414.5938,128.7656 Q1415.2031,127.6719 1416.25,127.0938 Q1417.3125,126.5 1418.5,126.5 Q1419.2188,126.5 1419.8438,126.75 Q1420.4688,127 1421,127.5 Z " fill="#000000"/><text fill="#000000" font-family="sans-serif" font-size="14" lengthAdjust="spacing" textLength="83" x="1433" y="136.7285">TableService</text><line style="stroke:#181818;stroke-width:0.5;" x1="1405" x2="1518" y1="147" y2="147"/><line style="stroke:#181818;stroke-width:0.5;" x1="1405" x2="1518" y1="155" y2="155"/></g><!--MD5=[483c867e8259f6152c29d1538b76fc3a]
class ITableService--><g id="elem_ITableService"><rect codeLine="19" fill="#F1F1F1" height="48" id="ITableService" rx="2.5" ry="2.5" style="stroke:#181818;stroke-width:0.5;" width="118" x="1402.5" y="7"/><ellipse cx="1417.5" cy="23" fill="#B4A7E5" rx="11" ry="11" style="stroke:#181818;stroke-width:1.0;"/><path d="M1418.5,20 L1418.5,26 L1420.5,26 L1420.9844,26 L1421.5,26.625 L1421.5,27 L1421.5,27.375 L1420.9844,28 L1420.5,28 L1414.5,28 L1414.0156,28 L1413.5,27.375 L1413.5,27 L1413.5,26.625 L1414.0156,26 L1414.5,26 L1416.5,26 L1416.5,20 L1414.5,20 L1414.0156,20 L1413.5,19.375 L1413.5,19 L1413.5,18.625 L1414.0156,18 L1414.5,18 L1420.5,18 L1420.9844,18 L1421.5,18.625 L1421.5,19 L1421.5,19.375 L1420.9844,20 L1420.5,20 L1418.5,20 Z " fill="#000000"/><text fill="#000000" font-family="sans-serif" font-size="14" font-style="italic" lengthAdjust="spacing" textLength="86" x="1431.5" y="28.7285">ITableService</text><line style="stroke:#181818;stroke-width:0.5;" x1="1403.5" x2="1519.5" y1="39" y2="39"/><line style="stroke:#181818;stroke-width:0.5;" x1="1403.5" x2="1519.5" y1="47" y2="47"/></g><!--MD5=[e0e1ab85464161f8b37cddad4a8ca7ca]
class TableController--><g id="elem_TableController"><rect codeLine="21" fill="#F1F1F1" height="48" id="TableController" rx="2.5" ry="2.5" style="stroke:#181818;stroke-width:0.5;" width="130" x="1560.5" y="115"/><ellipse cx="1575.5" cy="131" fill="#ADD1B2" rx="11" ry="11" style="stroke:#181818;stroke-width:1.0;"/><path d="M1577.5,127.5 Q1577.7031,127 1577.9375,126.75 Q1578.1719,126.5 1578.4375,126.5 Q1578.9063,126.5 1579.2031,126.7813 Q1579.5,127.0625 1579.5,127.7188 L1579.5,129.2813 Q1579.5,129.9375 1579.2188,130.2188 Q1578.9375,130.5 1578.5,130.5 Q1578.1094,130.5 1577.8594,130.3281 Q1577.6094,130.1563 1577.5,129.7031 Q1577.4531,129.3906 1577.2813,129.2188 Q1576.9688,128.8906 1576.4063,128.7031 Q1575.8438,128.5 1575.2813,128.5 Q1574.5781,128.5 1573.9844,128.7813 Q1573.4063,129.0625 1572.9531,129.6875 Q1572.5,130.3125 1572.5,131.1719 L1572.5,132.0938 Q1572.5,133.125 1573.3438,133.8125 Q1574.1875,134.5 1575.6875,134.5 Q1576.5781,134.5 1577.2031,134.2969 Q1577.5625,134.1875 1577.9688,133.8281 Q1578.2344,133.625 1578.375,133.5625 Q1578.5156,133.5 1578.6875,133.5 Q1579.0156,133.5 1579.25,133.7656 Q1579.5,134.0156 1579.5,134.375 Q1579.5,134.7188 1579.1563,135.125 Q1578.6563,135.7188 1577.8594,136.0469 Q1576.8125,136.5 1575.5313,136.5 Q1574.0313,136.5 1572.8281,135.9063 Q1571.8594,135.4375 1571.1719,134.4219 Q1570.5,133.4063 1570.5,132.2031 L1570.5,131.1094 Q1570.5,129.8594 1571.0938,128.7656 Q1571.7031,127.6719 1572.75,127.0938 Q1573.8125,126.5 1575,126.5 Q1575.7188,126.5 1576.3438,126.75 Q1576.9688,127 1577.5,127.5 Z " fill="#000000"/><text fill="#000000" font-family="sans-serif" font-size="14" lengthAdjust="spacing" textLength="98" x="1589.5" y="136.7285">TableController</text><line style="stroke:#181818;stroke-width:0.5;" x1="1561.5" x2="1689.5" y1="147" y2="147"/><line style="stroke:#181818;stroke-width:0.5;" x1="1561.5" x2="1689.5" y1="155" y2="155"/></g><!--MD5=[1e3e0e55f46d894716ee5cbeafeb1d73]
class IGamesService--><g id="elem_IGamesService"><rect codeLine="23" fill="#F1F1F1" height="48" id="IGamesService" rx="2.5" ry="2.5" style="stroke:#181818;stroke-width:0.5;" width="127" x="1063" y="7"/><ellipse cx="1078" cy="23" fill="#B4A7E5" rx="11" ry="11" style="stroke:#181818;stroke-width:1.0;"/><path d="M1079,20 L1079,26 L1081,26 L1081.4844,26 L1082,26.625 L1082,27 L1082,27.375 L1081.4844,28 L1081,28 L1075,28 L1074.5156,28 L1074,27.375 L1074,27 L1074,26.625 L1074.5156,26 L1075,26 L1077,26 L1077,20 L1075,20 L1074.5156,20 L1074,19.375 L1074,19 L1074,18.625 L1074.5156,18 L1075,18 L1081,18 L1081.4844,18 L1082,18.625 L1082,19 L1082,19.375 L1081.4844,20 L1081,20 L1079,20 Z " fill="#000000"/><text fill="#000000" font-family="sans-serif" font-size="14" font-style="italic" lengthAdjust="spacing" textLength="95" x="1092" y="28.7285">IGamesService</text><line style="stroke:#181818;stroke-width:0.5;" x1="1064" x2="1189" y1="39" y2="39"/><line style="stroke:#181818;stroke-width:0.5;" x1="1064" x2="1189" y1="47" y2="47"/></g><!--MD5=[414fd0c8b9f0da871199124a345d6ec4]
class BarsService--><g id="elem_BarsService"><rect codeLine="25" fill="#F1F1F1" height="48" id="BarsService" rx="2.5" ry="2.5" style="stroke:#181818;stroke-width:0.5;" width="108" x="8.5" y="115"/><ellipse cx="23.5" cy="131" fill="#ADD1B2" rx="11" ry="11" style="stroke:#181818;stroke-width:1.0;"/><path d="M25.5,127.5 Q25.7031,127 25.9375,126.75 Q26.1719,126.5 26.4375,126.5 Q26.9063,126.5 27.2031,126.7813 Q27.5,127.0625 27.5,127.7188 L27.5,129.2813 Q27.5,129.9375 27.2188,130.2188 Q26.9375,130.5 26.5,130.5 Q26.1094,130.5 25.8594,130.3281 Q25.6094,130.1563 25.5,129.7031 Q25.4531,129.3906 25.2813,129.2188 Q24.9688,128.8906 24.4063,128.7031 Q23.8438,128.5 23.2813,128.5 Q22.5781,128.5 21.9844,128.7813 Q21.4063,129.0625 20.9531,129.6875 Q20.5,130.3125 20.5,131.1719 L20.5,132.0938 Q20.5,133.125 21.3438,133.8125 Q22.1875,134.5 23.6875,134.5 Q24.5781,134.5 25.2031,134.2969 Q25.5625,134.1875 25.9688,133.8281 Q26.2344,133.625 26.375,133.5625 Q26.5156,133.5 26.6875,133.5 Q27.0156,133.5 27.25,133.7656 Q27.5,134.0156 27.5,134.375 Q27.5,134.7188 27.1563,135.125 Q26.6563,135.7188 25.8594,136.0469 Q24.8125,136.5 23.5313,136.5 Q22.0313,136.5 20.8281,135.9063 Q19.8594,135.4375 19.1719,134.4219 Q18.5,133.4063 18.5,132.2031 L18.5,131.1094 Q18.5,129.8594 19.0938,128.7656 Q19.7031,127.6719 20.75,127.0938 Q21.8125,126.5 23,126.5 Q23.7188,126.5 24.3438,126.75 Q24.9688,127 25.5,127.5 Z " fill="#000000"/><text fill="#000000" font-family="sans-serif" font-size="14" lengthAdjust="spacing" textLength="76" x="37.5" y="136.7285">BarsService</text><line style="stroke:#181818;stroke-width:0.5;" x1="9.5" x2="115.5" y1="147" y2="147"/><line style="stroke:#181818;stroke-width:0.5;" x1="9.5" x2="115.5" y1="155" y2="155"/></g><!--MD5=[c4ab4758817669e4ec6bf84e348c1e61]
class IBarsController--><g id="elem_IBarsController"><rect fill="#F1F1F1" height="48" id="IBarsController" rx="2.5" ry="2.5" style="stroke:#181818;stroke-width:0.5;" width="126" x="153.5" y="7"/><ellipse cx="168.5" cy="23" fill="#ADD1B2" rx="11" ry="11" style="stroke:#181818;stroke-width:1.0;"/><path d="M170.5,19.5 Q170.7031,19 170.9375,18.75 Q171.1719,18.5 171.4375,18.5 Q171.9063,18.5 172.2031,18.7813 Q172.5,19.0625 172.5,19.7188 L172.5,21.2813 Q172.5,21.9375 172.2188,22.2188 Q171.9375,22.5 171.5,22.5 Q171.1094,22.5 170.8594,22.3281 Q170.6094,22.1563 170.5,21.7031 Q170.4531,21.3906 170.2813,21.2188 Q169.9688,20.8906 169.4063,20.7031 Q168.8438,20.5 168.2813,20.5 Q167.5781,20.5 166.9844,20.7813 Q166.4063,21.0625 165.9531,21.6875 Q165.5,22.3125 165.5,23.1719 L165.5,24.0938 Q165.5,25.125 166.3438,25.8125 Q167.1875,26.5 168.6875,26.5 Q169.5781,26.5 170.2031,26.2969 Q170.5625,26.1875 170.9688,25.8281 Q171.2344,25.625 171.375,25.5625 Q171.5156,25.5 171.6875,25.5 Q172.0156,25.5 172.25,25.7656 Q172.5,26.0156 172.5,26.375 Q172.5,26.7188 172.1563,27.125 Q171.6563,27.7188 170.8594,28.0469 Q169.8125,28.5 168.5313,28.5 Q167.0313,28.5 165.8281,27.9063 Q164.8594,27.4375 164.1719,26.4219 Q163.5,25.4063 163.5,24.2031 L163.5,23.1094 Q163.5,21.8594 164.0938,20.7656 Q164.7031,19.6719 165.75,19.0938 Q166.8125,18.5 168,18.5 Q168.7188,18.5 169.3438,18.75 Q169.9688,19 170.5,19.5 Z " fill="#000000"/><text fill="#000000" font-family="sans-serif" font-size="14" lengthAdjust="spacing" textLength="94" x="182.5" y="28.7285">IBarsController</text><line style="stroke:#181818;stroke-width:0.5;" x1="154.5" x2="278.5" y1="39" y2="39"/><line style="stroke:#181818;stroke-width:0.5;" x1="154.5" x2="278.5" y1="47" y2="47"/></g><!--MD5=[5d9d7f361cf9aacac4ee237afb90f58a]
class JpaRepository--><g id="elem_JpaRepository"><rect fill="#F1F1F1" height="48" id="JpaRepository" rx="2.5" ry="2.5" style="stroke:#181818;stroke-width:0.5;" width="122" x="635.5" y="7"/><ellipse cx="650.5" cy="23" fill="#ADD1B2" rx="11" ry="11" style="stroke:#181818;stroke-width:1.0;"/><path d="M652.5,19.5 Q652.7031,19 652.9375,18.75 Q653.1719,18.5 653.4375,18.5 Q653.9063,18.5 654.2031,18.7813 Q654.5,19.0625 654.5,19.7188 L654.5,21.2813 Q654.5,21.9375 654.2188,22.2188 Q653.9375,22.5 653.5,22.5 Q653.1094,22.5 652.8594,22.3281 Q652.6094,22.1563 652.5,21.7031 Q652.4531,21.3906 652.2813,21.2188 Q651.9688,20.8906 651.4063,20.7031 Q650.8438,20.5 650.2813,20.5 Q649.5781,20.5 648.9844,20.7813 Q648.4063,21.0625 647.9531,21.6875 Q647.5,22.3125 647.5,23.1719 L647.5,24.0938 Q647.5,25.125 648.3438,25.8125 Q649.1875,26.5 650.6875,26.5 Q651.5781,26.5 652.2031,26.2969 Q652.5625,26.1875 652.9688,25.8281 Q653.2344,25.625 653.375,25.5625 Q653.5156,25.5 653.6875,25.5 Q654.0156,25.5 654.25,25.7656 Q654.5,26.0156 654.5,26.375 Q654.5,26.7188 654.1563,27.125 Q653.6563,27.7188 652.8594,28.0469 Q651.8125,28.5 650.5313,28.5 Q649.0313,28.5 647.8281,27.9063 Q646.8594,27.4375 646.1719,26.4219 Q645.5,25.4063 645.5,24.2031 L645.5,23.1094 Q645.5,21.8594 646.0938,20.7656 Q646.7031,19.6719 647.75,19.0938 Q648.8125,18.5 650,18.5 Q650.7188,18.5 651.3438,18.75 Q651.9688,19 652.5,19.5 Z " fill="#000000"/><text fill="#000000" font-family="sans-serif" font-size="14" lengthAdjust="spacing" textLength="90" x="664.5" y="28.7285">JpaRepository</text><line style="stroke:#181818;stroke-width:0.5;" x1="636.5" x2="756.5" y1="39" y2="39"/><line style="stroke:#181818;stroke-width:0.5;" x1="636.5" x2="756.5" y1="47" y2="47"/></g><!--MD5=[2ae11a5bcd71a32630ddf7646c55ab03]
class IGamesController--><g id="elem_IGamesController"><rect fill="#F1F1F1" height="48" id="IGamesController" rx="2.5" ry="2.5" style="stroke:#181818;stroke-width:0.5;" width="142" x="1225.5" y="7"/><ellipse cx="1240.5" cy="23" fill="#ADD1B2" rx="11" ry="11" style="stroke:#181818;stroke-width:1.0;"/><path d="M1242.5,19.5 Q1242.7031,19 1242.9375,18.75 Q1243.1719,18.5 1243.4375,18.5 Q1243.9063,18.5 1244.2031,18.7813 Q1244.5,19.0625 1244.5,19.7188 L1244.5,21.2813 Q1244.5,21.9375 1244.2188,22.2188 Q1243.9375,22.5 1243.5,22.5 Q1243.1094,22.5 1242.8594,22.3281 Q1242.6094,22.1563 1242.5,21.7031 Q1242.4531,21.3906 1242.2813,21.2188 Q1241.9688,20.8906 1241.4063,20.7031 Q1240.8438,20.5 1240.2813,20.5 Q1239.5781,20.5 1238.9844,20.7813 Q1238.4063,21.0625 1237.9531,21.6875 Q1237.5,22.3125 1237.5,23.1719 L1237.5,24.0938 Q1237.5,25.125 1238.3438,25.8125 Q1239.1875,26.5 1240.6875,26.5 Q1241.5781,26.5 1242.2031,26.2969 Q1242.5625,26.1875 1242.9688,25.8281 Q1243.2344,25.625 1243.375,25.5625 Q1243.5156,25.5 1243.6875,25.5 Q1244.0156,25.5 1244.25,25.7656 Q1244.5,26.0156 1244.5,26.375 Q1244.5,26.7188 1244.1563,27.125 Q1243.6563,27.7188 1242.8594,28.0469 Q1241.8125,28.5 1240.5313,28.5 Q1239.0313,28.5 1237.8281,27.9063 Q1236.8594,27.4375 1236.1719,26.4219 Q1235.5,25.4063 1235.5,24.2031 L1235.5,23.1094 Q1235.5,21.8594 1236.0938,20.7656 Q1236.7031,19.6719 1237.75,19.0938 Q1238.8125,18.5 1240,18.5 Q1240.7188,18.5 1241.3438,18.75 Q1241.9688,19 1242.5,19.5 Z " fill="#000000"/><text fill="#000000" font-family="sans-serif" font-size="14" lengthAdjust="spacing" textLength="110" x="1254.5" y="28.7285">IGamesController</text><line style="stroke:#181818;stroke-width:0.5;" x1="1226.5" x2="1366.5" y1="39" y2="39"/><line style="stroke:#181818;stroke-width:0.5;" x1="1226.5" x2="1366.5" y1="47" y2="47"/></g><!--MD5=[b7e9bf2a1a2015b5c7d2e7c64dfbeead]
class ITablesController--><g id="elem_ITablesController"><rect fill="#F1F1F1" height="48" id="ITablesController" rx="2.5" ry="2.5" style="stroke:#181818;stroke-width:0.5;" width="140" x="1555.5" y="7"/><ellipse cx="1570.5" cy="23" fill="#ADD1B2" rx="11" ry="11" style="stroke:#181818;stroke-width:1.0;"/><path d="M1572.5,19.5 Q1572.7031,19 1572.9375,18.75 Q1573.1719,18.5 1573.4375,18.5 Q1573.9063,18.5 1574.2031,18.7813 Q1574.5,19.0625 1574.5,19.7188 L1574.5,21.2813 Q1574.5,21.9375 1574.2188,22.2188 Q1573.9375,22.5 1573.5,22.5 Q1573.1094,22.5 1572.8594,22.3281 Q1572.6094,22.1563 1572.5,21.7031 Q1572.4531,21.3906 1572.2813,21.2188 Q1571.9688,20.8906 1571.4063,20.7031 Q1570.8438,20.5 1570.2813,20.5 Q1569.5781,20.5 1568.9844,20.7813 Q1568.4063,21.0625 1567.9531,21.6875 Q1567.5,22.3125 1567.5,23.1719 L1567.5,24.0938 Q1567.5,25.125 1568.3438,25.8125 Q1569.1875,26.5 1570.6875,26.5 Q1571.5781,26.5 1572.2031,26.2969 Q1572.5625,26.1875 1572.9688,25.8281 Q1573.2344,25.625 1573.375,25.5625 Q1573.5156,25.5 1573.6875,25.5 Q1574.0156,25.5 1574.25,25.7656 Q1574.5,26.0156 1574.5,26.375 Q1574.5,26.7188 1574.1563,27.125 Q1573.6563,27.7188 1572.8594,28.0469 Q1571.8125,28.5 1570.5313,28.5 Q1569.0313,28.5 1567.8281,27.9063 Q1566.8594,27.4375 1566.1719,26.4219 Q1565.5,25.4063 1565.5,24.2031 L1565.5,23.1094 Q1565.5,21.8594 1566.0938,20.7656 Q1566.7031,19.6719 1567.75,19.0938 Q1568.8125,18.5 1570,18.5 Q1570.7188,18.5 1571.3438,18.75 Q1571.9688,19 1572.5,19.5 Z " fill="#000000"/><text fill="#000000" font-family="sans-serif" font-size="14" lengthAdjust="spacing" textLength="108" x="1584.5" y="28.7285">ITablesController</text><line style="stroke:#181818;stroke-width:0.5;" x1="1556.5" x2="1694.5" y1="39" y2="39"/><line style="stroke:#181818;stroke-width:0.5;" x1="1556.5" x2="1694.5" y1="47" y2="47"/></g><!--MD5=[ebd01700a285f76768c2d9bf112b40bc]
reverse link IBarsController to BarsController--><g id="link_IBarsController_BarsController"><path codeLine="29" d="M216.5,75.02 C216.5,88.58 216.5,103.04 216.5,114.68 " fill="none" id="IBarsController-backto-BarsController" style="stroke:#181818;stroke-width:1.0;stroke-dasharray:7.0,7.0;"/><polygon fill="none" points="209.5,75,216.5,55,223.5,75,209.5,75" style="stroke:#181818;stroke-width:1.0;"/></g><!--MD5=[03ce2eae84eb0a1f45347bcaa85a730a]
reverse link JpaRepository to IGamesTypesRepository--><g id="link_JpaRepository_IGamesTypesRepository"><path codeLine="30" d="M616.22,61.44 C570.18,78.33 513.23,99.22 470.45,114.91 " fill="none" id="JpaRepository-backto-IGamesTypesRepository" style="stroke:#181818;stroke-width:1.0;"/><polygon fill="none" points="614.02,54.8,635.21,54.48,618.84,67.94,614.02,54.8" style="stroke:#181818;stroke-width:1.0;"/></g><!--MD5=[d993843c3057fdffa4e4cdd4ab7ac276]
reverse link JpaRepository to ITableRepository--><g id="link_JpaRepository_ITableRepository"><path codeLine="31" d="M663.64,70.7 C651.12,85.45 637.24,101.79 626.3,114.68 " fill="none" id="JpaRepository-backto-ITableRepository" style="stroke:#181818;stroke-width:1.0;"/><polygon fill="none" points="658.69,65.72,676.97,55,669.36,74.78,658.69,65.72" style="stroke:#181818;stroke-width:1.0;"/></g><!--MD5=[bc4946159d1b01afd61e102578f31f4b]
reverse link IGamesService to GamesService--><g id="link_IGamesService_GamesService"><path codeLine="32" d="M1126.5,75.02 C1126.5,88.58 1126.5,103.04 1126.5,114.68 " fill="none" id="IGamesService-backto-GamesService" style="stroke:#181818;stroke-width:1.0;stroke-dasharray:7.0,7.0;"/><polygon fill="none" points="1119.5,75,1126.5,55,1133.5,75,1119.5,75" style="stroke:#181818;stroke-width:1.0;"/></g><!--MD5=[413acec456653022c352ccf3c261025c]
reverse link IGamesController to GamesController--><g id="link_IGamesController_GamesController"><path codeLine="33" d="M1296.5,75.02 C1296.5,88.58 1296.5,103.04 1296.5,114.68 " fill="none" id="IGamesController-backto-GamesController" style="stroke:#181818;stroke-width:1.0;stroke-dasharray:7.0,7.0;"/><polygon fill="none" points="1289.5,75,1296.5,55,1303.5,75,1289.5,75" style="stroke:#181818;stroke-width:1.0;"/></g><!--MD5=[5e60dd4942e57730e7c9c8d8b58499a8]
reverse link JpaRepository to IGamesRepository--><g id="link_JpaRepository_IGamesRepository"><path codeLine="34" d="M729.36,70.7 C741.88,85.45 755.76,101.79 766.7,114.68 " fill="none" id="JpaRepository-backto-IGamesRepository" style="stroke:#181818;stroke-width:1.0;"/><polygon fill="none" points="723.64,74.78,716.03,55,734.31,65.72,723.64,74.78" style="stroke:#181818;stroke-width:1.0;"/></g><!--MD5=[1b0ffdd670785bdd1c679f2568a4a0f8]
reverse link JpaRepository to IBarsRepository--><g id="link_JpaRepository_IBarsRepository"><path codeLine="35" d="M773.03,62.49 C814.88,79.17 865.89,99.5 904.44,114.86 " fill="none" id="JpaRepository-backto-IBarsRepository" style="stroke:#181818;stroke-width:1.0;"/><polygon fill="none" points="770.21,68.91,754.22,55,775.39,55.9,770.21,68.91" style="stroke:#181818;stroke-width:1.0;"/></g><!--MD5=[1dcdc7a857be52722dc67708a5ad4aaf]
reverse link ITableService to TableService--><g id="link_ITableService_TableService"><path codeLine="36" d="M1461.5,75.02 C1461.5,88.58 1461.5,103.04 1461.5,114.68 " fill="none" id="ITableService-backto-TableService" style="stroke:#181818;stroke-width:1.0;stroke-dasharray:7.0,7.0;"/><polygon fill="none" points="1454.5,75,1461.5,55,1468.5,75,1454.5,75" style="stroke:#181818;stroke-width:1.0;"/></g><!--MD5=[27b896d9309164f44680c21e7838808d]
reverse link ITablesController to TableController--><g id="link_ITablesController_TableController"><path codeLine="37" d="M1625.5,75.02 C1625.5,88.58 1625.5,103.04 1625.5,114.68 " fill="none" id="ITablesController-backto-TableController" style="stroke:#181818;stroke-width:1.0;stroke-dasharray:7.0,7.0;"/><polygon fill="none" points="1618.5,75,1625.5,55,1632.5,75,1618.5,75" style="stroke:#181818;stroke-width:1.0;"/></g><!--MD5=[e8de87ed122c7291d812eb37c57de9a2]
reverse link IBarsService to BarsService--><g id="link_IBarsService_BarsService"><path codeLine="38" d="M62.5,75.02 C62.5,88.58 62.5,103.04 62.5,114.68 " fill="none" id="IBarsService-backto-BarsService" style="stroke:#181818;stroke-width:1.0;stroke-dasharray:7.0,7.0;"/><polygon fill="none" points="55.5,75,62.5,55,69.5,75,55.5,75" style="stroke:#181818;stroke-width:1.0;"/></g><!--MD5=[4f61b12c5f3d60ff2a0cc5a7d1723e90]
@startuml
interface IBarsService {
}
class BarsController {
}
interface IGamesTypesRepository {
}
interface ITableRepository {
}
class GamesService {
}
class GamesController {
}
interface IGamesRepository {
}
interface IBarsRepository {
}
class TableService {
}
interface ITableService {
}
class TableController {
}
interface IGamesService {
}
class BarsService {
}


IBarsController <|.. BarsController
JpaRepository <|- - IGamesTypesRepository
JpaRepository <|- - ITableRepository
IGamesService <|.. GamesService
IGamesController <|.. GamesController
JpaRepository <|- - IGamesRepository
JpaRepository <|- - IBarsRepository
ITableService <|.. TableService
ITablesController <|.. TableController
IBarsService <|.. BarsService
@enduml

PlantUML version 1.2022.12(Sun Oct 23 15:12:26 ART 2022)
(GPL source distribution)
Java Runtime: OpenJDK Runtime Environment
JVM: OpenJDK 64-Bit Server VM
Default Encoding: Cp1252
Language: es
Country: MX
--></g></svg>